<svg width="56" height="85" viewBox="0 0 56 85" fill="none" xmlns="http://www.w3.org/2000/svg">
<path d="M53.056 23.688V24.968C51.6053 25.0107 50.496 25.1813 49.728 25.48C49.0027 25.736 48.512 26.248 48.256 27.016C48 27.7413 47.872 28.8933 47.872 30.472V62.216C47.872 63.752 48 64.904 48.256 65.672C48.512 66.44 49.0027 66.952 49.728 67.208C50.496 67.464 51.6053 67.6347 53.056 67.72V69C52.0747 68.9147 50.8373 68.872 49.344 68.872C47.8933 68.8293 46.4213 68.808 44.928 68.808C43.264 68.808 41.7067 68.8293 40.256 68.872C38.8053 68.872 37.632 68.9147 36.736 69V67.72C38.1867 67.6347 39.2747 67.464 40 67.208C40.768 66.952 41.28 66.44 41.536 65.672C41.792 64.904 41.92 63.752 41.92 62.216V27.016L42.176 27.208L26.496 69.32H25.472L9.344 27.784V61.576C9.344 63.112 9.472 64.328 9.728 65.224C10.0267 66.0773 10.5813 66.696 11.392 67.08C12.2453 67.4213 13.504 67.6347 15.168 67.72V69C14.4 68.9147 13.3973 68.872 12.16 68.872C10.9227 68.8293 9.74933 68.808 8.64 68.808C7.57333 68.808 6.48533 68.8293 5.376 68.872C4.30933 68.872 3.41333 68.9147 2.688 69V67.72C4.13867 67.6347 5.22667 67.4213 5.952 67.08C6.72 66.696 7.232 66.0773 7.488 65.224C7.744 64.328 7.872 63.112 7.872 61.576V30.472C7.872 28.8933 7.744 27.7413 7.488 27.016C7.232 26.248 6.72 25.736 5.952 25.48C5.22667 25.1813 4.13867 25.0107 2.688 24.968V23.688C3.41333 23.7307 4.30933 23.7733 5.376 23.816C6.48533 23.8587 7.57333 23.88 8.64 23.88C9.57867 23.88 10.5387 23.8587 11.52 23.816C12.544 23.7733 13.3973 23.7307 14.08 23.688L28.608 61.96L27.52 62.472L41.92 23.88C42.432 23.88 42.9227 23.88 43.392 23.88C43.904 23.88 44.416 23.88 44.928 23.88C46.4213 23.88 47.8933 23.8587 49.344 23.816C50.8373 23.7733 52.0747 23.7307 53.056 23.688Z" fill="black"/>
<line x1="2" y1="81.5" x2="56" y2="81.5" stroke="black" stroke-width="7"/>
</svg>
